<svg xmlns="http://www.w3.org/2000/svg" xmlns:xlink="http://www.w3.org/1999/xlink" width="1920" zoomAndPan="magnify" viewBox="0 0 1440 809.999993" height="1080" preserveAspectRatio="xMidYMid meet" version="1.0"><defs><clipPath id="9ef5613d6c"><path d="M 600 288.300781 L 808.492188 288.300781 L 808.492188 518.550781 L 600 518.550781 Z M 600 288.300781 " clip-rule="nonzero"/></clipPath></defs><g clip-path="url(#9ef5613d6c)"><path fill="#000000" d="M 699.21875 490.625 C 691.007812 490.625 684.332031 483.933594 684.332031 475.746094 C 684.332031 467.53125 691.007812 460.839844 699.21875 460.839844 C 707.429688 460.839844 714.109375 467.53125 714.109375 475.746094 C 714.109375 483.933594 707.429688 490.625 699.21875 490.625 Z M 699.21875 453.886719 C 687.167969 453.886719 677.359375 463.6875 677.359375 475.746094 C 677.359375 487.777344 687.167969 497.578125 699.21875 497.578125 C 711.273438 497.578125 721.078125 487.777344 721.078125 475.746094 C 721.078125 463.683594 711.273438 453.882812 699.21875 453.886719 Z M 679.359375 306.222656 C 679.359375 305.285156 680.164062 304.464844 681.117188 304.460938 L 716.429688 304.460938 L 697.523438 326.175781 L 691.558594 318.898438 C 690.339844 317.433594 688.144531 317.199219 686.65625 318.429688 C 685.164062 319.632812 684.949219 321.835938 686.167969 323.332031 L 694.75 333.777344 C 696.113281 335.441406 698.636719 335.519531 700.070312 333.867188 L 719.070312 312.0625 L 719.070312 342.402344 C 719.070312 343.371094 718.265625 344.164062 717.3125 344.164062 L 681.117188 344.167969 C 680.164062 344.167969 679.359375 343.375 679.359375 342.40625 Z M 681.117188 351.121094 L 717.3125 351.121094 C 722.125 351.121094 726.042969 347.21875 726.042969 342.402344 L 726.039062 306.222656 C 726.039062 305.578125 725.960938 304.929688 725.816406 304.316406 L 734.394531 294.453125 C 735.65625 293.015625 735.507812 290.816406 734.054688 289.554688 C 732.601562 288.292969 730.402344 288.4375 729.136719 289.878906 L 721.542969 298.621094 C 720.289062 297.917969 718.847656 297.507812 717.3125 297.507812 L 681.117188 297.507812 C 676.304688 297.507812 672.390625 301.441406 672.390625 306.222656 L 672.390625 342.40625 C 672.390625 347.21875 676.304688 351.121094 681.117188 351.121094 Z M 791.855469 372.746094 C 791.855469 373.683594 791.050781 374.507812 790.097656 374.507812 L 753.902344 374.507812 C 752.949219 374.507812 752.148438 373.6875 752.148438 372.746094 L 752.144531 336.566406 C 752.144531 335.625 752.949219 334.804688 753.902344 334.804688 L 789.214844 334.804688 L 770.3125 356.519531 L 764.347656 349.242188 C 763.125 347.746094 760.929688 347.539062 759.441406 348.742188 C 757.953125 349.976562 757.734375 352.175781 758.957031 353.644531 L 767.535156 364.117188 C 768.183594 364.910156 769.152344 365.378906 770.179688 365.378906 C 770.28125 365.542969 771.894531 365.316406 772.859375 364.207031 L 791.855469 342.402344 Z M 806.839844 319.894531 C 805.386719 318.632812 803.1875 318.78125 801.921875 320.21875 L 794.324219 328.933594 C 793.074219 328.257812 791.632812 327.847656 790.097656 327.847656 L 753.902344 327.847656 C 749.089844 327.847656 745.175781 331.753906 745.175781 336.566406 L 745.175781 372.746094 C 745.175781 377.558594 749.09375 381.460938 753.90625 381.460938 L 790.097656 381.460938 C 794.910156 381.460938 798.828125 377.558594 798.828125 372.746094 L 798.828125 336.5625 C 798.828125 335.917969 798.746094 335.273438 798.605469 334.65625 L 807.179688 324.796875 C 808.445312 323.359375 808.292969 321.15625 806.839844 319.894531 Z M 607.355469 336.566406 C 607.355469 335.628906 608.160156 334.808594 609.113281 334.808594 L 644.425781 334.804688 L 625.519531 356.519531 L 619.554688 349.242188 C 618.335938 347.746094 616.140625 347.542969 614.648438 348.746094 C 613.160156 349.976562 612.945312 352.179688 614.164062 353.644531 L 622.746094 364.121094 C 623.394531 364.914062 624.363281 365.382812 625.386719 365.382812 C 625.476562 365.539062 627.09375 365.332031 628.070312 364.210938 L 647.066406 342.40625 L 647.066406 372.746094 C 647.066406 373.6875 646.261719 374.507812 645.308594 374.507812 L 609.113281 374.507812 C 608.160156 374.507812 607.355469 373.6875 607.355469 372.75 Z M 609.113281 381.464844 L 645.308594 381.464844 C 650.121094 381.464844 654.035156 377.5625 654.035156 372.75 L 654.035156 336.566406 C 654.035156 335.921875 653.953125 335.277344 653.8125 334.660156 L 662.390625 324.800781 C 663.652344 323.359375 663.5 321.160156 662.050781 319.898438 C 660.597656 318.636719 658.398438 318.785156 657.132812 320.222656 L 649.535156 328.9375 C 648.28125 328.261719 646.839844 327.851562 645.308594 327.851562 L 609.113281 327.851562 C 604.300781 327.851562 600.382812 331.757812 600.382812 336.566406 L 600.386719 372.75 C 600.386719 377.5625 604.300781 381.464844 609.113281 381.464844 Z M 790.847656 438.445312 L 757.601562 438.449219 L 763.207031 430.582031 L 790.652344 432.109375 C 792.566406 432.195312 794.011719 433.574219 794.011719 435.277344 C 794.011719 437.007812 792.589844 438.445312 790.847656 438.445312 Z M 730.148438 431.816406 L 745.40625 438.15625 C 747.207031 438.890625 749.160156 438.332031 750.273438 436.71875 L 775.421875 401.445312 C 776.046875 400.535156 776.289062 399.390625 776.082031 398.273438 C 775.4375 394.71875 770.785156 393.304688 768.347656 396.601562 C 768.253906 396.71875 768.152344 396.835938 768.042969 396.953125 L 744.472656 422.484375 C 743.257812 423.804688 741.25 423.980469 739.820312 422.925781 L 717.691406 406.316406 C 713.59375 403.851562 707.152344 402.503906 700.605469 402.648438 L 697.824219 402.648438 C 691.28125 402.503906 684.839844 403.851562 680.746094 406.320312 L 658.617188 422.925781 C 657.1875 423.984375 655.175781 423.808594 653.960938 422.488281 L 630.390625 396.957031 C 630.28125 396.839844 630.179688 396.722656 630.085938 396.605469 C 629.441406 395.667969 628.457031 395.023438 627.324219 394.816406 C 623.597656 394.140625 620.855469 398.378906 623.035156 401.476562 L 648.140625 436.691406 C 649.292969 438.316406 651.253906 438.878906 653.027344 438.15625 L 668.285156 431.820312 C 670.558594 430.882812 673.105469 432.597656 673.105469 435.046875 L 673.105469 446.902344 L 678.6875 448.105469 C 680.816406 446.519531 683.109375 445.199219 685.535156 444.144531 L 688.207031 435.925781 C 688.792969 434.105469 690.457031 432.902344 692.351562 432.902344 L 706.085938 432.902344 C 707.980469 432.902344 709.644531 434.105469 710.230469 435.925781 L 712.902344 444.140625 C 715.328125 445.199219 717.617188 446.519531 719.746094 448.101562 L 725.332031 446.898438 L 725.332031 435.042969 C 725.332031 432.59375 727.867188 430.882812 730.148438 431.816406 Z M 726.320312 471.226562 C 726.148438 470.171875 726.460938 469.113281 727.171875 468.320312 L 732.777344 462.101562 L 727.808594 453.503906 L 719.605469 455.265625 C 718.570312 455.46875 717.488281 455.207031 716.667969 454.53125 C 714.320312 452.59375 711.695312 451.066406 708.863281 450.011719 C 707.871094 449.660156 707.101562 448.835938 706.773438 447.839844 L 704.1875 439.886719 L 694.25 439.886719 L 691.664062 447.839844 C 691.335938 448.835938 690.566406 449.660156 689.574219 450.011719 C 686.742188 451.066406 684.117188 452.59375 681.769531 454.53125 C 680.953125 455.203125 679.871094 455.46875 678.832031 455.265625 L 670.628906 453.503906 L 665.660156 462.101562 L 671.269531 468.324219 C 671.976562 469.113281 672.289062 470.171875 672.117188 471.226562 C 671.625 474.222656 671.621094 477.238281 672.117188 480.234375 C 672.289062 481.292969 671.976562 482.347656 671.269531 483.140625 L 665.660156 489.363281 L 670.628906 497.960938 L 678.832031 496.230469 C 679.871094 495.996094 680.953125 496.257812 681.769531 496.933594 C 684.117188 498.871094 686.742188 500.394531 689.574219 501.453125 C 690.566406 501.835938 691.335938 502.625 691.664062 503.625 L 694.253906 511.605469 L 704.1875 511.605469 L 706.773438 503.625 C 707.101562 502.625 707.871094 501.835938 708.867188 501.453125 C 711.699219 500.394531 714.324219 498.871094 716.667969 496.933594 C 717.488281 496.257812 718.570312 495.992188 719.609375 496.230469 L 727.808594 497.960938 L 732.777344 489.363281 L 727.167969 483.140625 C 726.460938 482.347656 726.148438 481.292969 726.320312 480.234375 C 726.816406 477.242188 726.8125 474.21875 726.320312 471.226562 Z M 607.015625 435.28125 C 607.015625 433.582031 608.457031 432.199219 610.375 432.113281 L 635.328125 430.703125 L 640.832031 438.453125 L 610.179688 438.453125 C 608.433594 438.453125 607.015625 437.015625 607.015625 435.28125 Z M 699.214844 367.554688 C 706.992188 367.554688 713.320312 373.863281 713.320312 381.636719 C 713.320312 389.941406 706.160156 396.320312 698.234375 395.695312 C 690.914062 395.195312 685.109375 389.09375 685.109375 381.636719 C 685.109375 373.863281 691.4375 367.554688 699.214844 367.554688 Z M 791.039062 425.15625 L 767.992188 423.863281 L 781.125 405.433594 C 784.683594 400.402344 783.34375 393.285156 778.289062 389.796875 C 775.824219 388.09375 772.835938 387.449219 769.867188 387.976562 C 766.988281 388.503906 764.480469 390.058594 762.773438 392.40625 L 741.484375 415.441406 L 721.734375 400.625 C 719.84375 399.289062 716.171875 397.875 713.457031 397.164062 C 717.65625 393.316406 720.292969 387.773438 720.292969 381.636719 C 720.289062 370.019531 710.835938 360.597656 699.214844 360.597656 C 687.59375 360.601562 678.140625 370.019531 678.140625 381.640625 C 678.140625 387.773438 680.777344 393.320312 684.976562 397.164062 C 682.265625 397.875 678.585938 399.289062 676.699219 400.625 L 656.949219 415.445312 L 635.660156 392.410156 C 633.953125 390.0625 631.441406 388.507812 628.566406 387.980469 C 625.597656 387.453125 622.609375 388.097656 620.144531 389.796875 C 615.042969 393.320312 613.769531 400.363281 617.335938 405.496094 L 630.539062 424.015625 L 609.984375 425.160156 C 604.410156 425.453125 600.042969 429.914062 600.042969 435.28125 C 600.042969 440.859375 604.589844 445.40625 610.179688 445.40625 L 650.742188 445.40625 C 652.386719 445.523438 654.078125 445.257812 655.695312 444.582031 L 666.136719 440.269531 L 666.136719 447.578125 C 665.910156 447.8125 665.710938 448.074219 665.539062 448.367188 L 658.675781 460.253906 C 657.730469 461.894531 657.945312 463.949219 659.210938 465.359375 L 665.003906 471.785156 C 664.703125 474.398438 664.699219 477.0625 665.003906 479.679688 L 659.210938 486.105469 C 657.945312 487.515625 657.730469 489.570312 658.675781 491.210938 L 665.542969 503.097656 C 666.492188 504.738281 668.371094 505.5625 670.222656 505.179688 L 678.691406 503.359375 C 680.816406 504.945312 683.113281 506.292969 685.535156 507.320312 L 688.210938 515.566406 C 688.792969 517.355469 690.460938 518.558594 692.351562 518.558594 L 706.085938 518.558594 C 707.980469 518.558594 709.648438 517.355469 710.230469 515.566406 L 712.902344 507.320312 C 715.328125 506.292969 717.621094 504.941406 719.75 503.386719 L 728.214844 505.179688 C 730.066406 505.558594 731.949219 504.738281 732.894531 503.09375 L 739.765625 491.210938 C 740.707031 489.566406 740.492188 487.511719 739.226562 486.105469 L 733.433594 479.675781 C 733.738281 477.066406 733.730469 474.394531 733.433594 471.785156 L 739.226562 465.355469 C 740.492188 463.949219 740.707031 461.894531 739.761719 460.25 L 732.894531 448.367188 C 732.722656 448.074219 732.523438 447.808594 732.300781 447.574219 L 732.300781 440.269531 L 742.738281 444.582031 C 744.578125 445.34375 746.503906 445.578125 748.347656 445.34375 C 748.539062 445.375 748.730469 445.402344 748.925781 445.402344 L 790.84375 445.402344 C 796.433594 445.402344 800.980469 440.851562 800.980469 435.277344 C 800.980469 429.90625 796.613281 425.449219 791.039062 425.15625 Z M 791.039062 425.15625 " fill-opacity="1" fill-rule="evenodd"/></g></svg>